# xmcd CD database file
#
# Track frame offsets:
#	200
#	22320
#	38562
#	57410
#	74887
#	91375
#	106457
#	126302
#	141917
#	160842
#
# Disc length: 2317 seconds
#
# Revision: 0
# Processed by: cddbd v1.4PL0 Copyright (c) Steve Scherf et al.
# Submitted via: CDex 1.50Beta7
#
DISCID=97090b0a
DTITLE=Preacher Keen - Preachin' The Blues
DYEAR=1998
DGENRE=Blues
TTITLE0=Crippled Man Blues
TTITLE1=White Trash Blues
TTITLE2=Preachin' The Blues
TTITLE3=Princess Blues
TTITLE4=Come with Me
TTITLE5=Travelin' Light
TTITLE6=It's a Shame
TTITLE7=Mixed Up Lover
TTITLE8=History with the Blues
TTITLE9=Fixin' to Call
EXTD=YEAR: 1998
EXTT0=
EXTT1=
EXTT2=
EXTT3=
EXTT4=
EXTT5=
EXTT6=
EXTT7=
EXTT8=
EXTT9=
PLAYORDER=
